<svg width="22" height="22" viewBox="0 0 22 22" fill="none" xmlns="http://www.w3.org/2000/svg">
<path fill-rule="evenodd" clip-rule="evenodd" d="M20.1712 6.32458C20.1712 9.7674 17.5181 12.5583 14.2453 12.5583C10.9725 12.5583 8.31938 9.7674 8.31938 6.32458C8.31938 2.88177 10.9725 0.0908203 14.2453 0.0908203C17.5181 0.0908203 20.1712 2.88177 20.1712 6.32458ZM18.1959 6.32458C18.1959 8.61979 16.4272 10.4804 14.2453 10.4804C12.0634 10.4804 10.2947 8.61979 10.2947 6.32458C10.2947 4.02938 12.0634 2.16874 14.2453 2.16874C16.4272 2.16874 18.1959 4.02938 18.1959 6.32458Z" fill="white"/>
<path d="M7.5282 2.25167C8.06276 2.13752 8.40815 1.58913 8.29964 1.02679C8.19113 0.464458 7.66981 0.101132 7.13525 0.21528C4.42996 0.792952 2.39345 3.30731 2.39345 6.32436C2.39345 9.34142 4.42996 11.8558 7.13525 12.4334C7.66981 12.5476 8.19113 12.1843 8.29964 11.6219C8.40815 11.0596 8.06276 10.5112 7.5282 10.3971C5.72536 10.0121 4.36876 8.33372 4.36876 6.32436C4.36876 4.31501 5.72536 2.63664 7.5282 2.25167Z" fill="white"/>
<path fill-rule="evenodd" clip-rule="evenodd" d="M9.00867 15.2322C10.2263 14.2489 11.9234 13.5973 14.2454 13.5973C16.5673 13.5973 18.2644 14.2489 19.482 15.2322C20.6906 16.208 21.348 17.4467 21.7046 18.4894C22.0184 19.4072 21.7985 20.3055 21.2723 20.9422C20.764 21.5571 19.9946 21.909 19.1836 21.909H9.30706C8.49606 21.909 7.72658 21.5571 7.21835 20.9422C6.69209 20.3055 6.47223 19.4071 6.78608 18.4893C7.14265 17.4466 7.80013 16.208 9.00867 15.2322ZM10.2114 16.8805C9.37969 17.5521 8.91043 18.4159 8.64478 19.1927C8.58935 19.3548 8.61984 19.4709 8.70898 19.5788C8.81615 19.7084 9.02712 19.8311 9.30706 19.8311H19.1836C19.4635 19.8311 19.6745 19.7084 19.7817 19.5788C19.8708 19.4709 19.9013 19.3548 19.8459 19.1927C19.5802 18.4159 19.111 17.5521 18.2793 16.8805C17.4566 16.2162 16.1999 15.6752 14.2454 15.6752C12.2909 15.6752 11.0341 16.2162 10.2114 16.8805Z" fill="white"/>
<path d="M2.64128 19.0798C2.84346 18.2608 3.19047 17.3997 3.76313 16.7562C4.30741 16.1446 5.10013 15.6752 6.34407 15.6752C6.88954 15.6752 7.33172 15.2101 7.33172 14.6363C7.33172 14.0625 6.88954 13.5973 6.34407 13.5973C4.54588 13.5973 3.23349 14.3108 2.32106 15.3362C1.43702 16.3296 0.975727 17.5597 0.729396 18.5574C0.252161 20.4905 1.81518 21.909 3.38108 21.909H4.1408C4.68627 21.909 5.12846 21.4438 5.12846 20.87C5.12846 20.2962 4.68627 19.8311 4.1408 19.8311H3.38108C3.10204 19.8311 2.87982 19.7104 2.75349 19.5636C2.63907 19.4306 2.59355 19.2731 2.64128 19.0798Z" fill="white"/>
</svg>
