<svg width="22" height="22" viewBox="0 0 22 22" fill="none" xmlns="http://www.w3.org/2000/svg">
<path d="M5 19L1.55279 17.2764C1.214 17.107 1 16.7607 1 16.382V12.7386C1 12.2996 1.28632 11.9119 1.70591 11.7828L4.25 11M5 19L4.25 11M5 19L5.12127 19.4851C5.34385 20.3754 6.14382 21 7.06155 21H10M4.25 11L4 8C4 4.13401 7.13401 1 11 1C14.866 1 18 4.13401 18 8L17.75 11M17.75 11L17 19L20.4472 17.2764C20.786 17.107 21 16.7607 21 16.382V12.7386C21 12.2996 20.7137 11.9119 20.2941 11.7828L17.75 11Z" stroke="white" stroke-width="2" stroke-linecap="round" stroke-linejoin="round"/>
</svg>
